HIERARCHY
ROOT Hips
{
	OFFSET	0.00	0.00	0.00
	CHANNELS 6 Xposition Yposition Zposition Zrotation Xrotation Yrotation
	JOINT LeftUpLeg
	{
		OFFSET	 0.126116	-0.065224	 0.014019
		CHANNELS 3 Zrotation Xrotation Yrotation
		JOINT LeftLeg
		{
			OFFSET	 0.000000	 0.569914	 0.000000
			CHANNELS 3 Zrotation Xrotation Yrotation
			JOINT LeftFoot
			{
				OFFSET	 0.000000	 0.544423	 0.000000
				CHANNELS 3 Zrotation Xrotation Yrotation
				JOINT LeftToeBase
				{
					OFFSET	 0.000000	 0.207117	 0.000000
					CHANNELS 3 Zrotation Xrotation Yrotation
					End Site
					{
						OFFSET	 0.000000	 0.207117	 0.000000
					}
				}
			}
		}
	}
	JOINT RightUpLeg
	{
		OFFSET	-0.124023	-0.065224	 0.008373
		CHANNELS 3 Zrotation Xrotation Yrotation
		JOINT RightLeg
		{
			OFFSET	 0.000000	 0.570047	 0.000000
			CHANNELS 3 Zrotation Xrotation Yrotation
			JOINT RightFoot
			{
				OFFSET	 0.000000	 0.544354	 0.000000
				CHANNELS 3 Zrotation Xrotation Yrotation
				JOINT RightToeBase
				{
					OFFSET	 0.000000	 0.207540	 0.000000
					CHANNELS 3 Zrotation Xrotation Yrotation
					End Site
					{
						OFFSET	 0.000000	 0.207540	 0.000000
					}
				}
			}
		}
	}
	JOINT Spine
	{
		OFFSET	 0.000184	 0.117403	 0.007763
		CHANNELS 3 Zrotation Xrotation Yrotation
		JOINT Spine1
		{
			OFFSET	 0.000000	 0.137269	 0.000000
			CHANNELS 3 Zrotation Xrotation Yrotation
			JOINT Spine2
			{
				OFFSET	 0.000000	 0.156879	 0.000000
				CHANNELS 3 Zrotation Xrotation Yrotation
				JOINT LeftShoulder
				{
					OFFSET	 0.080501	 0.160143	 0.002496
					CHANNELS 3 Zrotation Xrotation Yrotation
					JOINT LeftArm
					{
						OFFSET	 0.000000	 0.164363	 0.000000
						CHANNELS 3 Zrotation Xrotation Yrotation
						JOINT LeftForeArm
						{
							OFFSET	 0.000000	 0.364576	 0.000000
							CHANNELS 3 Zrotation Xrotation Yrotation
							JOINT LeftHand
							{
								OFFSET	 0.000000	 0.360812	 0.000000
								CHANNELS 3 Zrotation Xrotation Yrotation
								JOINT LeftHandIndex1
								{
									OFFSET	 0.000000	 0.086006	 0.000000
									CHANNELS 3 Zrotation Xrotation Yrotation
									JOINT LeftHandIndex2
									{
										OFFSET	 0.000000	 0.047237	 0.000000
										CHANNELS 3 Zrotation Xrotation Yrotation
										JOINT LeftHandIndex3
										{
											OFFSET	-0.004284	 0.038165	 0.000551
											CHANNELS 3 Zrotation Xrotation Yrotation
											End Site
											{
												OFFSET	-0.004284	 0.038165	 0.000551
											}
										}
									}
								}
							}
						}
					}
				}
				JOINT Neck
				{
					OFFSET	 0.000000	 0.176489	 0.000000
					CHANNELS 3 Zrotation Xrotation Yrotation
					JOINT Head
					{
						OFFSET	 0.000000	 0.077941	 0.001747
						CHANNELS 3 Zrotation Xrotation Yrotation
						End Site
						{
							OFFSET	 0.000000	 0.077941	 0.001747
						}
					}
				}
				JOINT RightShoulder
				{
					OFFSET	-0.080363	 0.159706	-0.000306
					CHANNELS 3 Zrotation Xrotation Yrotation
					JOINT RightArm
					{
						OFFSET	 0.000000	 0.164196	 0.000000
						CHANNELS 3 Zrotation Xrotation Yrotation
						JOINT RightForeArm
						{
							OFFSET	 0.000000	 0.365611	 0.000000
							CHANNELS 3 Zrotation Xrotation Yrotation
							JOINT RightHand
							{
								OFFSET	 0.000000	 0.360648	 0.000000
								CHANNELS 3 Zrotation Xrotation Yrotation
								JOINT RightHandIndex1
								{
									OFFSET	 0.000000	 0.069977	 0.000000
									CHANNELS 3 Zrotation Xrotation Yrotation
									JOINT RightHandIndex2
									{
										OFFSET	 0.000000	 0.052305	 0.000000
										CHANNELS 3 Zrotation Xrotation Yrotation
										JOINT RightHandIndex3
										{
											OFFSET	 0.009002	 0.042196	 0.000782
											CHANNELS 3 Zrotation Xrotation Yrotation
											End Site
											{
												OFFSET	 0.009002	 0.042196	 0.000782
											}
										}
									}
								}
							}
						}
					}
				}
			}
		}
	}
}
MOTION
Frames:    6
Frame Time: 0.03333334
 0.436393	 1.274164	 0.410168	 0.683613	-2.420232	-177.243900	-178.850900	 7.059120	-13.526380	 3.538182	-13.078140	 6.010528	 5.509750	 69.836000	-1.675875	 1.292262	 28.425850	-2.713146	 176.615200	 7.508906	 15.149490	-1.913318	-9.854270	 0.845755	 0.282473	 65.605550	-5.714339	-1.288183	 28.361890	 2.710176	-0.996456	 5.030601	-12.417720	 3.541842	-1.840949	-6.098121	-2.245130	 1.994913	 18.082820	-117.537100	-0.803656	 89.947840	 11.963580	-3.562432	-8.116428	 5.129096	-0.356005	 34.317180	-29.838590	 14.112790	-17.212700	-6.580301	 5.266122	 0.000000	 0.000000	 0.000000	 0.000000	 0.000000	 0.000000	 0.000000	 4.849192	 27.286540	 1.668106	-3.646586	-17.336090	 4.853160	 116.410500	-0.474101	-90.557440	-10.540350	-2.116213	 18.028960	-5.107906	 0.200957	-56.847390	-48.641880	-21.853940	-8.001701	 15.208500	 5.323790	 0.000000	 0.000000	 0.000000	 0.000000	 0.000000	 0.000000	 0.000000
 0.436914	 1.275676	 0.423403	 0.733935	-2.832017	-177.201300	-178.531300	 8.067745	-15.907750	 3.723394	-13.736490	 6.153703	 6.217079	 69.881420	-2.098971	 1.292262	 28.425850	-2.713146	 176.559700	 7.520995	 17.566730	-1.488065	-7.694518	 0.764631	-0.995607	 63.815820	-5.266421	-1.288183	 28.361890	 2.710176	-0.809280	 4.910057	-13.843880	 3.466597	-1.336354	-6.001345	-2.082363	 1.160526	 17.701360	-117.972700	-0.936213	 89.888000	 11.941620	-3.267706	-7.146919	 5.563200	-0.061364	 32.077010	-27.357920	 12.490970	-19.434660	-6.580301	 5.266122	 0.000000	 0.000000	 0.000000	 0.000000	 0.000000	 0.000000	 0.000000	 5.156633	 28.239360	 1.411902	-3.653470	-18.012710	 4.840328	 117.097500	-0.663288	-90.490740	-10.707530	-1.879968	 17.476670	-5.399504	 0.646032	-54.936310	-49.008960	-21.043900	-7.223193	 15.208500	 5.323790	 0.000000	 0.000000	 0.000000	 0.000000	 0.000000	 0.000000	 0.000000
 0.437481	 1.277324	 0.438493	 0.785576	-3.488536	-177.133600	-178.193900	 9.293634	-18.263190	 3.846421	-14.171670	 6.342859	 7.284554	 69.714320	-2.698855	 1.292262	 28.425850	-2.713146	 176.617200	 7.620159	 19.964690	-0.969854	-5.032666	 0.592478	-2.581152	 61.738830	-4.757488	-1.288183	 28.361890	 2.710176	-0.543844	 4.970982	-16.084350	 3.279860	-1.014426	-5.812834	-1.852443	 0.758064	 17.042740	-118.673300	-1.148346	 89.789670	 12.241370	-2.093318	-5.322983	 6.314150	 0.373524	 28.587940	-23.865090	 9.906332	-22.781980	-6.580301	 5.266122	 0.000000	 0.000000	 0.000000	 0.000000	 0.000000	 0.000000	 0.000000	 5.667462	 29.769380	 0.982436	-3.678885	-18.961190	 4.806550	 118.202700	-0.965710	-90.378760	-11.419300	-0.957019	 16.820420	-5.925859	 1.345884	-52.043220	-48.646240	-19.486770	-6.447055	 15.208500	 5.323790	 0.000000	 0.000000	 0.000000	 0.000000	 0.000000	 0.000000	 0.000000
 0.438063	 1.279060	 0.455861	 0.847384	-4.384922	-177.040100	-177.846400	 10.749720	-20.571470	 3.905635	-14.380530	 6.574114	 8.749779	 69.319020	-3.460962	 1.292262	 28.425850	-2.713146	 176.506500	 9.367362	 22.348680	-0.967575	-5.020828	 0.286041	-4.323069	 60.980590	-4.032722	-1.288183	 28.361890	 2.710176	-0.163018	 5.225811	-19.086890	 2.941601	-0.635344	-5.523459	-1.530716	 0.735451	 16.079420	-119.639000	-1.438560	 89.649990	 13.027480	 0.407294	-2.550424	 7.398713	 0.903083	 23.980310	-19.662260	 6.091498	-27.371380	-6.580301	 5.266122	 0.000000	 0.000000	 0.000000	 0.000000	 0.000000	 0.000000	 0.000000	 6.407182	 31.872550	 0.352827	-3.725107	-20.174020	 4.749814	 119.726600	-1.378744	-90.214950	-12.912090	 1.146655	 16.222850	-6.704549	 2.283010	-48.366990	-47.033240	-17.527080	-5.663199	 15.208500	 5.323790	 0.000000	 0.000000	 0.000000	 0.000000	 0.000000	 0.000000	 0.000000
 0.438745	 1.281072	 0.474987	 0.914223	-5.494231	-176.923400	-177.529200	 12.345750	-22.760980	 3.869193	-14.252010	 6.830122	 10.579020	 68.652970	-4.311360	 1.292262	 28.425850	-2.713146	 176.381500	 11.403770	 24.620950	-0.964949	-5.007339	-0.079585	-6.417881	 60.220130	-3.191400	-1.288183	 28.361890	 2.710176	 0.366159	 5.666413	-22.655020	 2.477092	-0.123148	-5.122707	-1.134714	 1.112107	 14.809310	-120.840300	-1.795859	 89.469600	 14.544510	 3.993919	 0.819545	 8.771861	 1.461751	 18.527180	-15.111740	 1.364727	-32.489530	-6.580301	 5.266122	 0.000000	 0.000000	 0.000000	 0.000000	 0.000000	 0.000000	 0.000000	 7.390805	 34.476480	-0.497001	-3.793707	-21.606200	 4.667672	 121.622600	-1.885792	-89.996060	-9.864702	 5.587063	 15.218340	-18.977500	 3.674578	-44.144530	-39.687400	-12.163550	-1.289147	 15.208500	 5.323790	 0.000000	 0.000000	 0.000000	 0.000000	 0.000000	 0.000000	 0.000000
 0.481589	 1.210560	 0.641906	-5.402352	-35.494890	-175.205100	 167.435600	 64.938420	-7.601529	 11.371870	-36.583390	 23.798530	 56.568810	 59.823070	-40.690920	 1.292262	 28.425850	-2.713146	 153.902800	 63.859830	 33.072920	-6.682620	-31.192260	-17.675250	-50.019360	 49.856360	 31.034260	-1.288183	 28.361890	 2.710176	 6.643733	 10.525130	-24.586160	 1.838520	 14.648370	 1.094926	-2.620613	 1.028265	-9.214263	-124.716100	 23.442330	 103.026900	 25.033450	 2.447538	 1.661120	 57.061340	 3.059281	-31.730470	 35.258290	-17.379940	-40.979920	-6.580301	 5.266122	 0.000000	 0.000000	 0.000000	 0.000000	 0.000000	 0.000000	 0.000000	 8.138092	 40.670100	-4.537346	-3.269714	-45.006440	-2.420891	 130.102600	 24.959570	-106.081400	-29.131530	 10.662120	 12.707290	-65.424710	 10.536620	 22.572270	 9.467451	-33.145500	 47.332370	 15.208500	 5.323790	 0.000000	 0.000000	 0.000000	 0.000000	 0.000000	 0.000000	 0.000000
